<svg width="48" height="48" viewBox="0 0 48 48" fill="none" xmlns="http://www.w3.org/2000/svg">
<path d="M0.5 0.5H38C43.2467 0.5 47.5 4.75329 47.5 10V38C47.5 43.2467 43.2467 47.5 38 47.5H0.5V0.5Z" stroke="#50FFCA"/>
<path d="M32 21H23C21.8954 21 21 21.8954 21 23V32C21 33.1046 21.8954 34 23 34H32C33.1046 34 34 33.1046 34 32V23C34 21.8954 33.1046 21 32 21Z" stroke="#50FFCA" stroke-width="2" stroke-linecap="round" stroke-linejoin="round"/>
<path d="M17 27H16C15.4696 27 14.9609 26.7893 14.5858 26.4142C14.2107 26.0391 14 25.5304 14 25V16C14 15.4696 14.2107 14.9609 14.5858 14.5858C14.9609 14.2107 15.4696 14 16 14H25C25.5304 14 26.0391 14.2107 26.4142 14.5858C26.7893 14.9609 27 15.4696 27 16V17" stroke="#50FFCA" stroke-width="2" stroke-linecap="round" stroke-linejoin="round"/>
</svg>
